<?xml version="1.0" encoding="UTF-8"?>
<!DOCTYPE svg PUBLIC "-//W3C//DTD SVG 1.1//EN" "http://www.w3.org/Graphics/SVG/1.1/DTD/svg11.dtd">
<svg xmlns="http://www.w3.org/2000/svg" version="1.1" width="62px" height="58px" style="shape-rendering:geometricPrecision; text-rendering:geometricPrecision; image-rendering:optimizeQuality; fill-rule:evenodd; clip-rule:evenodd" xmlns:xlink="http://www.w3.org/1999/xlink">
<g><path style="opacity:0.88" fill="#fefefe" d="M 23.5,-0.5 C 27.8333,-0.5 32.1667,-0.5 36.5,-0.5C 37.4349,2.11279 37.6015,4.77946 37,7.5C 32.7664,8.03889 28.5997,9.20555 24.5,11C 17.7963,17.6288 18.4629,23.6288 26.5,29C 37.1601,30.2554 41.9934,25.422 41,14.5C 42.1451,13.3636 43.3117,12.3636 44.5,11.5C 45.1667,11.1667 45.8333,10.8333 46.5,10.5C 47.2066,12.1344 48.3732,13.4677 50,14.5C 51.899,26.2027 47.399,34.3693 36.5,39C 24.6383,41.6524 16.1383,37.4857 11,26.5C 8.17403,14.1567 12.3407,5.15666 23.5,-0.5 Z"/></g>
<g><path style="opacity:0.993" fill="#3dcb9d" d="M 46.5,10.5 C 45.8333,10.8333 45.1667,11.1667 44.5,11.5C 40.8964,10.4123 39.0631,8.079 39,4.5C 41.9345,2.80726 45.1011,1.80726 48.5,1.5C 48.2444,4.59794 47.5778,7.59794 46.5,10.5 Z"/></g>
<g><path style="opacity:0.68" fill="#fefffe" d="M 8.5,57.5 C 6.5,57.5 4.5,57.5 2.5,57.5C 1.70951,56.5987 0.709515,55.9321 -0.5,55.5C -0.5,52.5 -0.5,49.5 -0.5,46.5C 3.60595,44.5551 7.93929,44.0551 12.5,45C 11.4829,46.0495 11.3162,47.2161 12,48.5C 15.8062,44.8446 19.4729,45.1779 23,49.5C 25.5095,44.7451 28.5095,44.4117 32,48.5C 35.735,44.5555 39.0683,44.8888 42,49.5C 45.0691,44.9297 48.4024,44.5963 52,48.5C 53.4806,54.8571 50.9806,57.3571 44.5,56C 43.2986,55.0975 42.4652,53.9308 42,52.5C 40.6661,56.1044 38.1661,57.271 34.5,56C 32.659,53.3746 30.3257,51.2079 27.5,49.5C 26.5258,51.7427 26.1924,54.076 26.5,56.5C 22.4862,56.6655 18.4862,56.4988 14.5,56C 13.6667,55.1667 12.8333,54.3333 12,53.5C 10.9681,55.0267 9.80142,56.36 8.5,57.5 Z M 5.5,47.5 C 8.2436,48.0717 9.07693,49.7383 8,52.5C 5.45028,53.98 3.61694,53.3133 2.5,50.5C 3.33977,49.265 4.33977,48.265 5.5,47.5 Z M 16.5,49.5 C 18.0481,49.8212 18.7148,50.8212 18.5,52.5C 15.7524,52.5983 15.0857,51.5983 16.5,49.5 Z"/></g>
<g><path style="opacity:0.705" fill="#fefffe" d="M 61.5,47.5 C 61.5,48.8333 61.5,50.1667 61.5,51.5C 59.857,51.5198 58.5237,50.8532 57.5,49.5C 56.5258,51.7427 56.1924,54.076 56.5,56.5C 55.5,56.5 54.5,56.5 53.5,56.5C 53.3354,53.4816 53.502,50.4816 54,47.5C 56.4788,44.9824 58.9788,44.9824 61.5,47.5 Z"/></g>
</svg>
