<svg width="157" height="200" viewBox="0 0 157 200" fill="none" xmlns="http://www.w3.org/2000/svg">
<path d="M123.342 0H0V200H156.671V33.3292L123.342 0Z" fill="#E8E8E8"/>
<path d="M130.065 98.9056C127.662 94.6224 119.358 93.2767 115.549 92.6712C112.546 92.1936 109.48 92.0511 106.443 92.0537C104.059 92.0379 101.709 92.1553 99.3896 92.2873C98.5347 92.3446 97.6884 92.4185 96.8427 92.4918C95.9759 91.5946 95.1381 90.6678 94.3274 89.7199C89.1689 83.6134 85.0038 76.6884 81.6099 69.4922C82.511 66.0151 83.232 62.3863 83.6674 58.6177C84.4623 51.7395 84.7354 43.9008 82.1581 37.3431C81.2682 35.0799 78.8954 32.3245 76.1578 33.6966C73.0106 35.2745 72.1254 39.745 71.8688 42.9139C71.6623 45.4754 71.8067 48.0434 72.2368 50.562C72.6749 53.0977 73.38 55.5055 74.1479 57.9099C74.8643 60.1145 75.6539 62.3019 76.5147 64.4689C75.9685 66.1748 75.3887 67.8509 74.7798 69.4843C73.3602 73.2067 71.8252 76.7431 70.3489 80.145C69.5705 81.8317 68.8086 83.4828 68.0632 85.097C65.7043 90.2786 63.1435 95.3652 60.2693 100.282C53.5653 102.647 47.5492 105.389 42.5529 108.61C39.8728 110.342 37.5053 112.223 35.5335 114.285C33.672 116.233 31.7801 118.76 31.6145 121.558C31.5215 123.137 32.1469 124.669 33.4404 125.606C35.2195 126.935 37.5772 126.847 39.6412 126.414C46.4027 124.996 51.5949 119.183 56.0165 114.285C59.0622 110.911 62.5287 106.626 66.1548 101.445C66.1627 101.433 66.1706 101.421 66.1792 101.409C72.3985 99.4808 79.1672 97.8528 86.3509 96.6562C89.6326 96.1119 93.0015 95.6667 96.4377 95.354C98.854 97.6173 101.465 99.6781 104.313 101.399C106.532 102.764 108.891 103.916 111.361 104.776C113.859 105.592 116.371 106.258 118.966 106.68C120.276 106.867 121.615 106.952 122.984 106.901C126.039 106.785 130.424 105.614 130.711 101.907C130.8 100.772 130.555 99.7777 130.065 98.9056ZM56.9295 105.707C55.4987 107.923 54.1187 109.917 52.8185 111.671C49.6344 116.003 45.9977 121.149 40.7323 123.073C39.7322 123.439 38.4156 123.816 37.0277 123.734C35.7915 123.662 34.5724 123.116 34.6285 121.713C34.6562 120.978 35.0157 120.04 35.5672 119.119C36.1708 118.11 36.9182 117.183 37.7276 116.332C39.4618 114.51 41.6545 112.744 44.177 111.109C48.0459 108.599 52.6648 106.339 57.8134 104.323C57.5173 104.792 57.2217 105.257 56.9295 105.707ZM74.8867 50.124C74.4896 47.806 74.4295 45.4556 74.6736 43.1956C74.795 42.0656 75.0252 40.9627 75.3583 39.929C75.6407 39.0517 76.2502 36.9104 77.2225 36.6353C78.8255 36.1815 79.3182 39.6229 79.4997 40.5966C80.5327 46.135 79.6224 52.2943 78.3829 57.7272C78.1856 58.5913 77.966 59.4416 77.741 60.2886C77.3571 59.2325 76.991 58.1731 76.6539 57.1084C75.9283 54.7831 75.2647 52.4308 74.8867 50.124ZM85.8917 93.846C79.8691 94.8223 74.14 96.1014 68.7545 97.6114C69.403 97.4299 72.3661 91.8143 73.0271 90.6487C76.1413 85.1636 78.6889 79.4068 80.5195 73.3677C83.7518 79.7604 87.6748 85.8761 92.4942 91.3195C92.9382 91.8136 93.3894 92.3018 93.8485 92.784C91.1479 93.0749 88.4901 93.4291 85.8917 93.846ZM126.622 101.56C126.401 102.751 123.858 103.432 122.672 103.619C119.165 104.17 115.455 103.729 112.099 102.602C109.796 101.829 107.575 100.776 105.464 99.5092C103.367 98.242 101.404 96.7512 99.5697 95.1073C101.832 94.9714 104.121 94.8824 106.422 94.9259C108.723 94.949 111.042 95.0651 113.332 95.3639C117.627 95.8428 122.44 97.3171 125.821 100.104C126.486 100.654 126.699 101.139 126.622 101.56Z" fill="#FB3449"/>
<path d="M128.5 16.6649H0V0H123.342L128.5 16.6649Z" fill="#FB3449"/>
<path d="M62.0067 159.078C62.0067 162.614 60.9644 165.345 58.8786 167.271C56.7927 169.198 53.8309 170.161 49.9917 170.161H47.5886V180.661H39.0381V149.011H49.9923C53.9899 149.011 56.992 149.885 58.998 151.631C61.004 153.377 62.0067 155.859 62.0067 159.078ZM47.5892 163.19H49.148C50.4323 163.19 51.4535 162.83 52.2114 162.108C52.9694 161.386 53.348 160.39 53.348 159.12C53.348 156.984 52.1646 155.916 49.7977 155.916H47.5892V163.19Z" fill="#A4A9AD"/>
<path d="M93.9166 164.165C93.9166 169.447 92.4621 173.517 89.5543 176.374C86.6465 179.232 82.558 180.661 77.2906 180.661H67.0508V149.011H78.005C83.085 149.011 87.0067 150.31 89.7707 152.908C92.534 155.505 93.9166 159.258 93.9166 164.165ZM85.0409 164.468C85.0409 161.567 84.467 159.417 83.3199 158.017C82.1727 156.617 80.4299 155.917 78.0915 155.917H75.6026V173.647H77.5077C80.106 173.647 82.0105 172.893 83.2229 171.384C84.4347 169.877 85.0409 167.571 85.0409 164.468Z" fill="#A4A9AD"/>
<path d="M108.01 180.661H99.5889V149.011H118.293V155.874H108.01V161.913H117.492V168.776H108.01V180.661Z" fill="#A4A9AD"/>
<path d="M123.342 33.3292H156.671L123.342 0V33.3292Z" fill="#D1D3D3"/>
</svg>
